<svg width="6" height="12" viewBox="0 0 6 12" fill="none" xmlns="http://www.w3.org/2000/svg">
<path d="M5.84278 11.069L1.23178 6.38399C1.13065 6.28177 1.07393 6.14378 1.07393 5.99999C1.07393 5.8562 1.13065 5.71821 1.23178 5.61599L5.84178 0.92999C5.94285 0.827134 5.99949 0.688696 5.99949 0.54449C5.99949 0.400283 5.94285 0.261845 5.84178 0.15899C5.7924 0.108341 5.73338 0.068089 5.66821 0.0406053C5.60303 0.0131216 5.53301 -0.0010376 5.46228 -0.0010376C5.39154 -0.0010376 5.32152 0.0131216 5.25635 0.0406053C5.19117 0.068089 5.13215 0.108341 5.08278 0.15899L0.472775 4.84299C0.169849 5.15151 0.000130653 5.56661 0.000130653 5.99899C0.000130653 6.43137 0.169849 6.84647 0.472775 7.15499L5.08278 11.839C5.13217 11.8898 5.19125 11.9302 5.25652 11.9577C5.32178 11.9853 5.39192 11.9995 5.46278 11.9995C5.53363 11.9995 5.60377 11.9853 5.66904 11.9577C5.73431 11.9302 5.79338 11.8898 5.84278 11.839C5.94385 11.7361 6.00049 11.5977 6.00049 11.4535C6.00049 11.3093 5.94385 11.1708 5.84278 11.068" fill="black"/>
</svg>
