<svg width="6" height="12" viewBox="0 0 6 12" fill="none" xmlns="http://www.w3.org/2000/svg">
<path d="M0.157224 11.069L4.76822 6.38399C4.86935 6.28177 4.92607 6.14378 4.92607 5.99999C4.92607 5.8562 4.86935 5.71821 4.76822 5.61599L0.158224 0.92999C0.0571484 0.827134 0.000512123 0.688696 0.000512123 0.54449C0.000512123 0.400283 0.0571484 0.261845 0.158224 0.15899C0.207601 0.108341 0.266617 0.068089 0.331794 0.0406053C0.396971 0.0131216 0.46699 -0.0010376 0.537724 -0.0010376C0.608459 -0.0010376 0.678477 0.0131216 0.743654 0.0406053C0.808831 0.068089 0.867847 0.108341 0.917224 0.15899L5.52722 4.84299C5.83015 5.15151 5.99987 5.56661 5.99987 5.99899C5.99987 6.43137 5.83015 6.84647 5.52722 7.15499L0.917224 11.839C0.867831 11.8898 0.808754 11.9302 0.743484 11.9577C0.678215 11.9853 0.608079 11.9995 0.537224 11.9995C0.466369 11.9995 0.396233 11.9853 0.330964 11.9577C0.265694 11.9302 0.206617 11.8898 0.157224 11.839C0.0561485 11.7361 -0.000488281 11.5977 -0.000488281 11.4535C-0.000488281 11.3093 0.0561485 11.1708 0.157224 11.068" fill="black"/>
</svg>
